<svg xmlns="http://www.w3.org/2000/svg" viewBox="0 0 48 48">
<rect width="48" height="48" rx="11" fill="#11120f"/>
<g transform="translate(2.4 2.4) scale(0.9)">
<circle cx="24" cy="24" r="21" fill="none" stroke="#7d9459" stroke-opacity="0.45" stroke-width="1.5"/>
<g stroke="#7d9459" stroke-width="1.5" stroke-linecap="round"><line x1="34.50" y1="5.81" x2="33.25" y2="7.98"/><line x1="42.19" y1="13.50" x2="40.02" y2="14.75"/><line x1="45.00" y1="24.00" x2="41.50" y2="24.00"/><line x1="42.19" y1="34.50" x2="40.02" y2="33.25"/><line x1="34.50" y1="42.19" x2="33.25" y2="40.02"/><line x1="24.00" y1="45.00" x2="24.00" y2="41.50"/><line x1="13.50" y1="42.19" x2="14.75" y2="40.02"/><line x1="5.81" y1="34.50" x2="7.98" y2="33.25"/><line x1="3.00" y1="24.00" x2="6.50" y2="24.00"/><line x1="5.81" y1="13.50" x2="7.98" y2="14.75"/><line x1="13.50" y1="5.81" x2="14.75" y2="7.98"/></g>
<g transform="translate(10.00 6.92) scale(0.28)">
<path d="M50 6 55 17 61 14 58 36 70 24 73 30 85 27 81 40 87 43 70 57 73 64 53 61 52.5 80 47.5 80 47 61 27 64 30 57 13 43 19 40 15 27 27 30 30 24 42 36 39 14 45 17Z" fill="#7d9459" stroke="#7d9459" stroke-width="4" stroke-linejoin="round"/>
<path d="M50 61 80 31M50 61 20 31M63 48 81 42M37 48 19 42M61 50 67 29M39 50 33 29M50 45 57 25M50 45 43 25M50 61 66 59M50 61 34 59" stroke="#11120f" stroke-width="3.4" stroke-linecap="round" fill="none"/>
</g>
<path d="M24 24V9.5" stroke="#c0915f" stroke-width="1.1" stroke-linecap="round"/>
<path d="M24 4.6 25.8 9.8H22.2Z" fill="#c0915f" stroke="#c0915f" stroke-width="0.5" stroke-linejoin="round"/>
<circle cx="24" cy="24" r="1.6" fill="#c0915f" stroke="#11120f" stroke-width="0.7"/>
</g>
</svg>
